<svg width="36" height="36" viewBox="0 0 36 36" fill="none" xmlns="http://www.w3.org/2000/svg">
<path d="M30.6455 4.70545C27.3746 1.7638 23.3061 0.292969 18.4473 0.292969C13.3397 0.292969 8.98584 1.96372 5.39297 5.31235C1.8001 8.66098 0 12.8236 0 17.8072C0 22.5839 1.71229 26.6893 5.12954 30.1308C8.56143 33.5722 13.1714 35.293 18.9742 35.293C22.4719 35.293 25.9038 34.5933 29.2698 33.1867C30.3675 32.7297 30.9016 31.5017 30.4553 30.4235C29.9943 29.3097 28.6918 28.7956 27.5576 29.2669C24.6306 30.4949 21.7621 31.109 18.9669 31.109C14.5178 31.109 11.0713 29.7881 8.62729 27.1392C6.19057 24.4974 4.96856 21.3915 4.96856 17.8287C4.96856 13.9588 6.27838 10.7316 8.89072 8.13977C11.4957 5.55511 14.7081 4.25564 18.5132 4.25564C22.0182 4.25564 24.9818 5.31949 27.3966 7.44719C29.8113 9.57489 31.0187 12.2524 31.0187 15.4796C31.0187 17.6859 30.4626 19.528 29.3577 20.9917C28.2527 22.4625 27.1039 23.1908 25.9111 23.1908C25.2672 23.1908 24.9452 22.8552 24.9452 22.1769C24.9452 21.6271 24.9891 20.9845 25.0696 20.242L26.4307 9.38212H21.7475L21.4475 10.446C20.2547 9.49636 18.9449 9.01798 17.5253 9.01798C15.2715 9.01798 13.3397 9.89619 11.7372 11.6455C10.1274 13.3948 9.32976 15.651 9.32976 18.407C9.32976 21.0988 10.0396 23.2764 11.4665 24.9258C12.8934 26.5822 14.6057 27.4033 16.6106 27.4033C18.4034 27.4033 19.9328 26.6679 21.206 25.2042C22.1646 26.6108 23.5769 27.3105 25.4428 27.3105C28.1869 27.3105 30.5577 26.1467 32.5554 23.8119C34.5531 21.4843 35.5555 18.6712 35.5555 15.3797C35.5555 11.2099 33.9238 7.64711 30.6455 4.70545ZM19.8596 21.1345C19.0327 22.2197 18.0449 22.7695 16.896 22.7695C16.1131 22.7695 15.4837 22.3697 15.0081 21.57C14.5252 20.7703 14.2837 19.7779 14.2837 18.5855C14.2837 17.1147 14.6203 15.9294 15.2935 15.0298C15.9667 14.1302 16.8009 13.6732 17.7961 13.6732C18.6595 13.6732 19.4279 14.0088 20.1011 14.6871C20.7743 15.3654 21.1109 16.265 21.1109 17.3931C21.1036 18.7997 20.6865 20.042 19.8596 21.1345Z" fill="#06486C"/>
</svg>
