<svg width="38" height="36" viewBox="0 0 38 36" fill="none" xmlns="http://www.w3.org/2000/svg">
<g clip-path="url(#clip0)">
<path d="M29.1393 14.0762H28.0004V9.70117C28.0004 4.87555 23.9141 0.951172 18.8893 0.951172C13.8645 0.951172 9.77821 4.87555 9.77821 9.70117V14.0762H8.63932C6.75636 14.0762 5.22266 15.5476 5.22266 17.3574V32.6699C5.22266 34.4797 6.75636 35.9512 8.63932 35.9512H29.1393C31.0223 35.9512 32.556 34.4797 32.556 32.6699V17.3574C32.556 15.5476 31.0223 14.0762 29.1393 14.0762ZM12.8152 9.70117C12.8152 6.48409 15.5395 3.86784 18.8893 3.86784C22.2392 3.86784 24.9634 6.48409 24.9634 9.70117V14.0762H12.8152V9.70117ZM20.4078 25.3374V28.6595C20.4078 29.4645 19.7291 30.1178 18.8893 30.1178C18.0496 30.1178 17.3708 29.4645 17.3708 28.6595V25.3374C16.4673 24.8314 15.8523 23.901 15.8523 22.8262C15.8523 21.2176 17.2144 19.9095 18.8893 19.9095C20.5642 19.9095 21.9264 21.2176 21.9264 22.8262C21.9264 23.901 21.3114 24.8314 20.4078 25.3374Z" fill="#2A055A"/>
</g>
<defs>
<clipPath id="clip0">
<rect width="36.4444" height="35" fill="white" transform="translate(0.666992 0.951172)"/>
</clipPath>
</defs>
</svg>
