<svg width="37" height="35" viewBox="0 0 37 35" fill="none" xmlns="http://www.w3.org/2000/svg">
<g clip-path="url(#clip0)">
<path d="M18.6691 0.0732422C13.5897 0.0732422 9.4375 4.06084 9.4375 8.93892C9.4375 13.817 13.5897 17.8046 18.6691 17.8046C23.7485 17.8046 27.9006 13.817 27.9006 8.93892C27.9006 4.06084 23.7485 0.0732422 18.6691 0.0732422Z" fill="#06486C"/>
<path d="M34.5114 24.889C34.2695 24.3083 33.9471 23.7663 33.5843 23.263C31.7299 20.6304 28.8678 18.8882 25.6428 18.4624C25.2397 18.4237 24.7962 18.5011 24.4737 18.7334C22.7806 19.9335 20.765 20.5529 18.6687 20.5529C16.5724 20.5529 14.5568 19.9335 12.8637 18.7334C12.5411 18.5011 12.0977 18.3849 11.6946 18.4624C8.46962 18.8882 5.56715 20.6304 3.75311 23.263C3.3903 23.7663 3.06777 24.3471 2.82594 24.889C2.70503 25.1213 2.74531 25.3923 2.86622 25.6246C3.18875 26.1666 3.59184 26.7087 3.95465 27.1732C4.519 27.9089 5.12371 28.567 5.80905 29.1864C6.3734 29.7284 7.01838 30.2317 7.66345 30.735C10.8481 33.0192 14.6778 34.2192 18.6284 34.2192C22.579 34.2192 26.4087 33.0191 29.5934 30.735C30.2384 30.2704 30.8834 29.7284 31.4478 29.1864C32.0928 28.567 32.7378 27.9088 33.3022 27.1732C33.7053 26.6699 34.0682 26.1666 34.3906 25.6246C34.5921 25.3923 34.6324 25.1213 34.5114 24.889Z" fill="#06486C"/>
</g>
<defs>
<clipPath id="clip0">
<rect width="35.5556" height="34.1463" fill="white" transform="translate(0.888672 0.0732422)"/>
</clipPath>
</defs>
</svg>
