<svg width="35" height="34" viewBox="0 0 35 34" fill="none" xmlns="http://www.w3.org/2000/svg">
<g clip-path="url(#clip0)">
<path d="M3.51545 3.50901C7.75984 -0.669062 14.6656 -0.668997 18.91 3.50907C21.8091 6.36293 22.8161 10.5686 21.5608 14.3842L33.8199 26.4518C34.0055 26.6345 34.1099 26.8818 34.1099 27.1406V32.6514C34.1099 33.1898 33.6673 33.6255 33.1203 33.6255H27.522C27.2592 33.6255 27.0079 33.5228 26.8224 33.3401L25.423 31.9617C25.2095 31.7514 25.1051 31.4566 25.1399 31.1607L25.3139 29.6805L23.2303 29.4873C22.7568 29.4436 22.3828 29.0754 22.3383 28.6093L22.1421 26.5583L20.6384 26.7304C20.3591 26.7675 20.0779 26.6752 19.8663 26.4907C19.6556 26.3053 19.5348 26.0408 19.5348 25.763V23.9493H17.7257C17.4629 23.9493 17.2116 23.8465 17.0261 23.6638L14.4883 21.1988C10.6131 22.4355 6.4146 21.5189 3.51545 18.6631C-0.728931 14.4851 -0.728931 7.68708 3.51545 3.50901ZM6.31499 10.3973C7.47273 11.537 9.35525 11.537 10.513 10.3973C11.6707 9.25769 11.6707 7.40459 10.513 6.26493C9.35525 5.12527 7.47273 5.12527 6.31499 6.26493C5.15724 7.40459 5.1573 9.25769 6.31499 10.3973Z" fill="#06486C"/>
</g>
<defs>
<clipPath id="clip0">
<rect width="33.7778" height="33.25" fill="white" transform="matrix(-1 0 0 1 34.1108 0.375977)"/>
</clipPath>
</defs>
</svg>
